<svg width="11" height="11" viewBox="0 0 11 11" fill="none" xmlns="http://www.w3.org/2000/svg">
<g clip-path="url(#clip0)">
<path d="M9.04456 6.84955C8.4678 6.27278 7.78082 5.8448 7.03139 5.58764C7.83409 5.03476 8.36126 4.10899 8.36126 3.06384C8.36126 1.37395 6.98731 0 5.29742 0C3.60754 0 2.23542 1.37395 2.23542 3.062C2.23542 4.10899 2.7626 5.03292 3.56529 5.58581C2.81586 5.8448 2.12889 6.27094 1.55212 6.84771C0.55105 7.85062 0 9.18049 0 10.5948H0.828411C0.828411 8.12982 2.83423 6.124 5.29926 6.124C7.76429 6.124 9.77011 8.12982 9.77011 10.5948H10.5985C10.5948 9.18049 10.0438 7.85062 9.04456 6.84955ZM5.29742 5.29742C4.06491 5.29742 3.062 4.29451 3.062 3.062C3.062 1.82948 4.06491 0.828411 5.29742 0.828411C6.52994 0.828411 7.53285 1.83132 7.53285 3.06384C7.53285 4.29635 6.52994 5.29742 5.29742 5.29742Z" fill="#AAAAAA"/>
</g>
<defs>
<clipPath id="clip0">
<rect width="10.5948" height="10.5948" fill="white"/>
</clipPath>
</defs>
</svg>
