<svg width="11" height="12" viewBox="0 0 11 12" fill="none" xmlns="http://www.w3.org/2000/svg">
<path fill-rule="evenodd" clip-rule="evenodd" d="M9.7079 1.36045H9.19335V0.5H8.3329V1.36045H2.66424V0.5H1.80379V1.36045H1.28924C0.577443 1.36045 0 1.93789 0 2.64683V10.2079C0 10.9197 0.577443 11.4971 1.28924 11.4971H9.71076C10.4226 11.4971 11 10.9197 11 10.2079V2.64683C10.9971 1.93789 10.4197 1.36045 9.7079 1.36045ZM10.1396 10.2079C10.1396 10.4452 9.94803 10.6367 9.71076 10.6367H1.28924C1.05198 10.6367 0.860447 10.4452 0.860447 10.2079V4.53924H10.1396V10.2079ZM10.1396 3.67879H0.860447V2.64683C0.860447 2.40956 1.05198 2.21804 1.28924 2.21804H1.80379V3.07848H2.66424V2.21804H8.33576V3.07848H9.19621V2.21804H9.71076C9.94803 2.21804 10.1396 2.40956 10.1396 2.64683V3.67879ZM2.49272 5.43967H1.63228V6.30012H2.49272V5.43967ZM3.35031 5.43967H4.21075V6.30012H3.35031V5.43967ZM5.92879 5.43967H5.06834V6.30012H5.92879V5.43967ZM6.78924 5.43967H7.64969V6.30012H6.78924V5.43967ZM9.36772 5.43967H8.50728V6.30012H9.36772V5.43967ZM1.63228 7.15809H2.49272V8.01853H1.63228V7.15809ZM4.21075 7.15809H3.35031V8.01853H4.21075V7.15809ZM5.06834 7.15809H5.92879V8.01853H5.06834V7.15809ZM7.64969 7.15809H6.78924V8.01853H7.64969V7.15809ZM1.63228 8.87824H2.49272V9.73868H1.63228V8.87824ZM4.21075 8.87824H3.35031V9.73868H4.21075V8.87824ZM5.06834 8.87824H5.92879V9.73868H5.06834V8.87824ZM7.64969 8.87824H6.78924V9.73868H7.64969V8.87824ZM8.50728 7.15809H9.36772V8.01853H8.50728V7.15809Z" fill="#AAAAAA"/>
</svg>
